<svg xmlns="http://www.w3.org/2000/svg" xmlns:xlink="http://www.w3.org/1999/xlink" width="192" zoomAndPan="magnify" viewBox="0 0 144 143.999998" height="192" preserveAspectRatio="xMidYMid meet" version="1.0"><defs><g/></defs><g fill="#ffcf00" fill-opacity="1"><g transform="translate(12.447543, 110.482958)"><g><path d="M 33.90625 -36.890625 C 33.519531 -36.503906 33.066406 -36.320312 32.546875 -36.34375 C 32.023438 -36.375 31.582031 -36.539062 31.21875 -36.84375 C 30.863281 -37.144531 30.613281 -37.503906 30.46875 -37.921875 C 30.332031 -38.335938 30.457031 -38.738281 30.84375 -39.125 C 33.101562 -41 35.582031 -42.757812 38.28125 -44.40625 C 40.988281 -46.0625 43.582031 -47.8125 46.0625 -49.65625 C 48.539062 -51.507812 50.734375 -53.578125 52.640625 -55.859375 C 54.546875 -58.148438 55.882812 -60.921875 56.65625 -64.171875 C 57.039062 -63.785156 57.4375 -63.414062 57.84375 -63.0625 C 58.257812 -62.707031 58.851562 -62.332031 59.625 -61.9375 C 56.976562 -60.726562 54.675781 -59.210938 52.71875 -57.390625 C 50.757812 -55.578125 49.035156 -53.507812 47.546875 -51.1875 C 45.617188 -47.988281 43.851562 -44.664062 42.25 -41.21875 C 40.65625 -37.78125 39.03125 -34.320312 37.375 -30.84375 C 35.726562 -27.375 33.96875 -23.957031 32.09375 -20.59375 C 30.21875 -17.226562 28.039062 -14.03125 25.5625 -11 C 24.394531 -9.507812 23.191406 -8.085938 21.953125 -6.734375 C 20.710938 -5.390625 19.375 -4.21875 17.9375 -3.21875 C 16.507812 -2.226562 14.984375 -1.472656 13.359375 -0.953125 C 11.734375 -0.429688 9.984375 -0.25 8.109375 -0.40625 C 6.566406 -0.570312 5.285156 -1.015625 4.265625 -1.734375 C 3.242188 -2.453125 2.46875 -3.332031 1.9375 -4.375 C 1.414062 -5.425781 1.15625 -6.585938 1.15625 -7.859375 C 1.15625 -9.128906 1.429688 -10.425781 1.984375 -11.75 C 2.648438 -13.238281 3.585938 -14.929688 4.796875 -16.828125 C 6.003906 -18.734375 7.40625 -20.59375 9 -22.40625 C 10.601562 -24.226562 12.34375 -25.910156 14.21875 -27.453125 C 16.09375 -28.992188 18.019531 -30.175781 20 -31 C 21.988281 -31.832031 23.976562 -32.222656 25.96875 -32.171875 C 27.957031 -32.117188 29.832031 -31.398438 31.59375 -30.015625 C 33.132812 -28.859375 34.304688 -27.519531 35.109375 -26 C 35.910156 -24.488281 36.53125 -22.769531 36.96875 -20.84375 C 37.351562 -19.351562 37.628906 -17.738281 37.796875 -16 C 37.960938 -14.257812 38.429688 -12.59375 39.203125 -11 C 39.585938 -10.445312 40.25 -10.253906 41.1875 -10.421875 C 42.125 -10.585938 43.101562 -10.90625 44.125 -11.375 C 45.144531 -11.84375 46.125 -12.363281 47.0625 -12.9375 C 48 -13.519531 48.660156 -13.921875 49.046875 -14.140625 C 51.359375 -15.628906 53.492188 -17.28125 55.453125 -19.09375 C 57.410156 -20.914062 59.351562 -22.796875 61.28125 -24.734375 C 61.664062 -24.347656 62.035156 -23.957031 62.390625 -23.5625 C 62.753906 -23.175781 63.128906 -22.789062 63.515625 -22.40625 C 62.742188 -21.96875 61.972656 -21.445312 61.203125 -20.84375 C 60.429688 -20.238281 59.660156 -19.742188 58.890625 -19.359375 C 58.503906 -18.972656 58.101562 -18.847656 57.6875 -18.984375 C 57.269531 -19.117188 56.921875 -19.363281 56.640625 -19.71875 C 56.367188 -20.082031 56.207031 -20.523438 56.15625 -21.046875 C 56.101562 -21.566406 56.269531 -22.019531 56.65625 -22.40625 C 57.425781 -22.789062 58.179688 -23.300781 58.921875 -23.9375 C 59.671875 -24.570312 60.457031 -25.082031 61.28125 -25.46875 C 61.664062 -25.632812 62.09375 -25.648438 62.5625 -25.515625 C 63.03125 -25.378906 63.429688 -25.144531 63.765625 -24.8125 C 64.097656 -24.476562 64.273438 -24.085938 64.296875 -23.640625 C 64.328125 -23.203125 64.066406 -22.789062 63.515625 -22.40625 C 61.921875 -20.476562 60.195312 -18.617188 58.34375 -16.828125 C 56.5 -15.035156 54.445312 -13.34375 52.1875 -11.75 C 50.582031 -10.976562 48.867188 -10.132812 47.046875 -9.21875 C 45.234375 -8.3125 43.363281 -7.664062 41.4375 -7.28125 C 40.113281 -7.113281 39.050781 -7.234375 38.25 -7.640625 C 37.445312 -8.054688 36.8125 -8.664062 36.34375 -9.46875 C 35.875 -10.269531 35.515625 -11.207031 35.265625 -12.28125 C 35.023438 -13.351562 34.820312 -14.46875 34.65625 -15.625 C 34.269531 -17.332031 33.726562 -19.097656 33.03125 -20.921875 C 32.34375 -22.742188 31.460938 -24.285156 30.390625 -25.546875 C 29.316406 -26.816406 27.992188 -27.660156 26.421875 -28.078125 C 24.847656 -28.492188 23.015625 -28.125 20.921875 -26.96875 C 19.265625 -26.1875 17.609375 -25.175781 15.953125 -23.9375 C 14.304688 -22.695312 12.78125 -21.289062 11.375 -19.71875 C 9.96875 -18.15625 8.710938 -16.488281 7.609375 -14.71875 C 6.503906 -12.957031 5.675781 -11.222656 5.125 -9.515625 C 5.125 -9.128906 5.082031 -8.710938 5 -8.265625 C 4.914062 -7.828125 4.875 -7.398438 4.875 -6.984375 C 4.875 -6.578125 4.925781 -6.191406 5.03125 -5.828125 C 5.144531 -5.472656 5.425781 -5.210938 5.875 -5.046875 C 6.644531 -4.210938 7.632812 -3.753906 8.84375 -3.671875 C 10.0625 -3.597656 11.054688 -3.753906 11.828125 -4.140625 C 12.984375 -4.359375 14.039062 -4.742188 15 -5.296875 C 15.96875 -5.847656 16.851562 -6.46875 17.65625 -7.15625 C 18.457031 -7.84375 19.1875 -8.585938 19.84375 -9.390625 C 20.507812 -10.191406 21.117188 -10.976562 21.671875 -11.75 C 23.984375 -14.445312 26.085938 -17.269531 27.984375 -20.21875 C 29.890625 -23.164062 31.613281 -26.1875 33.15625 -29.28125 C 34.488281 -32.3125 35.851562 -35.578125 37.25 -39.078125 C 38.65625 -42.578125 40.296875 -45.992188 42.171875 -49.328125 C 44.046875 -52.671875 46.195312 -55.71875 48.625 -58.46875 C 51.050781 -61.226562 53.972656 -63.378906 57.390625 -64.921875 C 58.160156 -65.304688 58.847656 -65.304688 59.453125 -64.921875 C 60.066406 -64.535156 60.375 -63.789062 60.375 -62.6875 C 59.4375 -59.4375 58 -56.648438 56.0625 -54.328125 C 54.132812 -52.015625 51.941406 -49.921875 49.484375 -48.046875 C 47.035156 -46.171875 44.445312 -44.363281 41.71875 -42.625 C 38.988281 -40.894531 36.382812 -38.984375 33.90625 -36.890625 Z M 33.90625 -36.890625 "/></g></g></g><g fill="#ffcf00" fill-opacity="1"><g transform="translate(72.31434, 109.897569)"><g><path d="M 11.441406 -20.335938 C 6.011719 -19.425781 0.382812 -13.894531 -0.671875 -7.453125 C -1.539062 -2.066406 1.152344 0.480469 4.664062 0.433594 C 8.558594 0.335938 10.671875 -2.644531 12.355469 -5.578125 C 11.78125 -2.019531 13.078125 0.191406 15.386719 0.191406 C 19.90625 0.191406 23.65625 -4.421875 26.15625 -9.664062 C 26.445312 -10.242188 24.714844 -11.203125 24.472656 -10.625 C 22.742188 -6.441406 19.472656 -3.171875 17.691406 -3.125 C 16.585938 -3.125 16.300781 -4.230469 16.828125 -6.636719 C 17.261719 -8.992188 18.125 -11.875 18.65625 -13.703125 C 18.460938 -14.710938 14.90625 -15.722656 14.039062 -14.617188 C 12.40625 -8.460938 7.597656 -1.152344 5.242188 -3.460938 C 4.136719 -4.566406 4.421875 -7.835938 5.914062 -10.960938 C 7.402344 -14.136719 10.046875 -16.585938 12.835938 -16.972656 C 15.050781 -17.261719 17.742188 -16.585938 19.710938 -15 C 20.480469 -14.617188 22.453125 -16.828125 21.972656 -17.597656 C 19.28125 -20.335938 14.617188 -20.867188 11.441406 -20.335938 Z M 11.441406 -20.335938 "/></g></g></g><g fill="#ffcf00" fill-opacity="1"><g transform="translate(99.468122, 110.242923)"><g><path d="M 13.3125 -18.234375 C 10.488281 -18.277344 7.578125 -15.496094 6.035156 -13.695312 C 6.421875 -14.9375 6.589844 -15.667969 6.976562 -17.035156 C 6.550781 -18.363281 3.210938 -18.578125 2.527344 -17.636719 C 0.8125 -11.386719 -0.640625 -6.507812 -2.011719 -0.8125 C -1.925781 0.597656 2.3125 0.472656 2.78125 -0.472656 C 3.679688 -4.324219 4.152344 -6.507812 5.351562 -10.53125 C 6.933594 -12.667969 9.203125 -14.679688 10.699219 -14.722656 C 12.15625 -14.765625 11.941406 -13.355469 11.640625 -12.070312 C 11.257812 -10.316406 10.058594 -5.648438 9.800781 -4.195312 C 9.289062 -1.414062 10.273438 0.472656 13.527344 0.386719 C 17.679688 0.34375 20.886719 -4.878906 22.601562 -8.601562 C 22.8125 -9.117188 21.316406 -9.972656 21.101562 -9.460938 C 19.519531 -5.777344 16.992188 -2.609375 15.238281 -2.609375 C 14.167969 -2.609375 14.382812 -4.238281 14.722656 -5.820312 C 15.195312 -7.875 16.09375 -10.273438 16.566406 -12.242188 C 17.378906 -15.707031 16.566406 -18.191406 13.3125 -18.234375 Z M 13.3125 -18.234375 "/></g></g></g></svg>